<?xml version="1.0" encoding="UTF-8" standalone="no"?>
<svg
   xmlns:osb="http://www.openswatchbook.org/uri/2009/osb"
   xmlns:dc="http://purl.org/dc/elements/1.1/"
   xmlns:cc="http://creativecommons.org/ns#"
   xmlns:rdf="http://www.w3.org/1999/02/22-rdf-syntax-ns#"
   xmlns:svg="http://www.w3.org/2000/svg"
   xmlns="http://www.w3.org/2000/svg"
   xmlns:sodipodi="http://sodipodi.sourceforge.net/DTD/sodipodi-0.dtd"
   xmlns:inkscape="http://www.inkscape.org/namespaces/inkscape"
   version="1.1"
   id="svg2"
   viewBox="0 0 50.000001 50.000001"
   height="50"
   width="50"
   inkscape:version="0.91 r13725"
   sodipodi:docname="roundlogo.svg"
   inkscape:export-filename="/home/pieter/Documents/roundlogo.svg.png"
   inkscape:export-xdpi="89.699997"
   inkscape:export-ydpi="89.699997">
  <sodipodi:namedview
     pagecolor="#ffffff"
     bordercolor="#666666"
     borderopacity="1"
     objecttolerance="10"
     gridtolerance="10"
     guidetolerance="10"
     inkscape:pageopacity="0"
     inkscape:pageshadow="2"
     inkscape:window-width="1366"
     inkscape:window-height="713"
     id="namedview31"
     showgrid="false"
     inkscape:zoom="7.9999996"
     inkscape:cx="34.115985"
     inkscape:cy="23.887838"
     inkscape:window-x="0"
     inkscape:window-y="27"
     inkscape:window-maximized="1"
     inkscape:current-layer="g5770"
     units="px" />
  <defs
     id="defs4">
    <linearGradient
       osb:paint="solid"
       id="linearGradient5898">
      <stop
         id="stop5900"
         offset="0"
         style="stop-color:#000000;stop-opacity:1;" />
    </linearGradient>
    <linearGradient
       osb:paint="solid"
       id="linearGradient5880">
      <stop
         id="stop5882"
         offset="0"
         style="stop-color:#870000;stop-opacity:1;" />
    </linearGradient>
    <linearGradient
       osb:paint="solid"
       id="linearGradient5872">
      <stop
         id="stop5874"
         offset="0"
         style="stop-color:#870000;stop-opacity:1;" />
    </linearGradient>
  </defs>
  <metadata
     id="metadata7">
    <rdf:RDF>
      <cc:Work
         rdf:about="">
        <dc:format>image/svg+xml</dc:format>
        <dc:type
           rdf:resource="http://purl.org/dc/dcmitype/StillImage" />
        <dc:title></dc:title>
      </cc:Work>
    </rdf:RDF>
  </metadata>
  <g
     id="layer1"
     transform="matrix(0.99,0,0,0.99,-62.702092,-689.09731)">
    <g
       id="g5770"
       transform="matrix(0.06494554,0,0,0.06494554,67.038969,705.76979)">
      <path
         inkscape:connector-curvature="0"
         style="fill:#ffffff;fill-opacity:1;fill-rule:nonzero;stroke:none;stroke-width:1px;stroke-linecap:butt;stroke-linejoin:miter;stroke-opacity:1"
         id="path3615"
         d="m 288.66836,149.0007 c -5.36226,13.00885 -9.02115,26.7157 -12.53265,40.39459 -1.21564,6.61841 -3.30954,14.42318 1.61453,20.10233 5.25158,6.05688 13.72056,6.08897 20.73641,6.83276 3.34196,0.36823 21.94863,-1.59468 22.69864,4.1081 0.58907,4.47908 -4.54737,8.99328 -6.52299,11.42865 -3.54113,4.12949 -9.29848,10.64629 -12.48815,15.14088 -1.68881,2.37972 -6.39587,8.06389 -4.46812,12.25686 1.96363,4.271 10.76235,5.50228 13.38846,6.26345 13.18013,2.25196 26.35336,-0.058 39.51148,-0.78557 2.88521,-0.15952 5.85735,-0.76138 8.66716,-0.0438 1.31822,0.33667 3.18048,1.58374 2.93323,3.00651 -0.55858,3.21417 -3.26507,5.53132 -4.8976,8.29698 -3.65642,3.64754 -7.27916,7.33396 -10.96926,10.94263 -16.62907,16.26216 -13.4891,12.59978 -30.35891,29.66971 -12.71504,12.86588 -24.84586,26.15882 -36.62206,39.99285 -2.01051,2.71723 -10.27969,10.59346 -7.8544,16.54601 2.2817,5.6001 15.40543,7.49968 18.14028,7.94345 11.29845,1.8333 22.57534,1.56097 33.95184,1.725 14.77803,-0.26641 29.54707,-1.03167 44.33026,-0.65779 3.59101,0.0908 13.93805,0.42641 18.05561,1.46808 1.70295,0.43082 3.2213,1.46181 4.83196,2.19271 0.67734,1.20979 1.80184,2.24152 2.03202,3.62936 0.94077,5.67215 -5.60761,12.68161 -8.41335,16.53704 -5.46522,7.50987 -3.88529,5.29881 -8.86428,12.84583 -1.96892,3.72544 -5.36351,9.16723 -1.62373,13.1743 3.25395,3.48653 8.94477,3.78157 13.15581,4.442 6.21389,-0.40765 3.18499,0.0945 9.09243,-1.46622 0,0 -16.341,13.22538 -16.341,13.22538 l 0,0 c -6.1693,1.09761 -3.019,0.83106 -9.45457,0.74831 -4.89182,-0.98578 -10.80418,-1.73601 -14.34927,-6.04069 -4.15697,-5.04766 -1.47192,-10.73146 1.21668,-15.58979 4.20901,-6.41498 4.26883,-6.66088 8.81888,-12.95506 1.58924,-2.19842 8.61321,-10.6481 8.74133,-13.90701 0.0365,-0.92975 -0.69251,-1.708 -1.03876,-2.562 -1.35302,-0.67292 -2.6161,-1.61108 -4.05906,-2.01874 -4.1351,-1.16828 -13.39963,-1.71623 -17.10656,-1.89231 -14.49692,-0.68861 -29.00287,-0.12169 -43.50331,0.0247 -10.24121,-0.15499 -24.63847,-0.0197 -34.85505,-1.56365 -5.24239,-0.7922 -17.75675,-2.18525 -20.64482,-9.91308 -2.5965,-6.94766 6.00258,-14.75958 8.74165,-18.33177 3.44123,-3.93131 6.82248,-7.92346 10.3237,-11.79392 21.34049,-23.59104 44.33789,-45.35081 66.42137,-68.12411 1.76116,-1.71377 4.03504,-2.97434 5.28348,-5.14132 1.63915,-2.84513 -4.78254,-2.55039 -8.96869,-2.44316 -4.17097,0.10685 -8.32224,0.66077 -12.48938,0.87933 -16.22841,0.85117 -11.98454,0.66673 -27.86237,-0.31661 -4.91007,-1.45709 -12.73448,-2.05902 -15.4679,-8.24894 -2.24432,-5.08234 2.26557,-10.54805 4.59047,-13.86712 2.64144,-3.77098 9.17752,-11.49234 12.11908,-15.03299 1.58046,-1.85861 3.15107,-3.72681 4.74137,-5.57584 0.74939,-0.87129 2.02377,-1.43337 2.27745,-2.58484 0.37999,-1.72482 -3.13695,-2.48202 -5.64341,-2.80233 -2.30129,-0.29408 -13.58483,-0.59322 -15.27165,-0.64747 -7.76014,-1.00319 -16.57182,-1.42286 -22.17758,-8.28808 -5.20518,-6.37464 -3.36207,-14.4364 -1.86321,-21.79902 3.45233,-13.3359 6.79036,-26.74427 11.09823,-39.7988 0,0 19.19828,-9.62576 19.19828,-9.62576 z" />
      <g
         id="g5904"
         style="fill:#ffffff;fill-opacity:1">
        <path
           inkscape:connector-curvature="0"
           d="m 180.92942,106.64223 c -36.76336,109.24259 -53.83677,220.95747 -71.9299,332.24468 -2.80237,18.76621 -5.60473,37.53241 -8.40708,56.29861 0,0 -12.707649,4.36635 -12.707649,4.36635 l 0,0 c 3.716868,-19.08051 7.433724,-38.16102 11.150596,-57.24154 15.291213,-83.68133 10.084063,-53.50224 24.605483,-140.08315 7.22267,-43.06369 13.88721,-86.17268 21.34674,-129.21687 2.13138,-12.29894 4.81675,-24.54956 6.94079,-36.84911 1.18769,-6.87754 1.99563,-13.78417 2.99344,-20.67625 0,0 26.00758,-8.84272 26.00758,-8.84272 z"
           id="path3560"
           style="opacity:0.98000004;fill:#ffffff;fill-opacity:1;fill-rule:nonzero;stroke:#000000;stroke-width:0;stroke-linecap:butt;stroke-linejoin:bevel;stroke-miterlimit:4;stroke-dasharray:none;stroke-opacity:1" />
        <path
           inkscape:connector-curvature="0"
           d="m 264.69194,113.67591 c -12.54035,56.44669 -24.11142,113.09162 -35.46507,169.77536 -12.05406,59.07309 -23.48588,118.28973 -31.20319,178.06336 -0.45733,4.07588 -0.91467,8.15176 -1.37201,12.22764 0,0 -17.59821,8.42647 -17.59821,8.42647 l 0,0 c 0.73825,-4.21842 1.47651,-8.43685 2.21477,-12.65528 11.04821,-60.24639 23.90851,-120.1443 35.68006,-180.25754 7.31596,-37.6144 8.34036,-42.1065 15.00491,-79.3787 4.64627,-25.98472 9.30467,-52.04234 12.56627,-78.23659 0.35765,-2.87239 0.56109,-5.76099 0.84164,-8.64149 0,0 19.33083,-9.32323 19.33083,-9.32323 z"
           id="path3562"
           style="fill:#ffffff;fill-opacity:1;fill-rule:nonzero;stroke:none;stroke-width:1px;stroke-linecap:butt;stroke-linejoin:miter;stroke-opacity:1" />
        <path
           inkscape:connector-curvature="0"
           d="m 54.719492,104.88727 c 15.159898,1.38914 30.367472,1.27808 45.547988,1.52851 20.33069,0.65827 40.6598,0.94016 60.97853,0.50741 6.57231,-0.31861 13.15613,-0.30142 19.73747,-0.31106 0,0 -15.24495,14.26759 -15.24495,14.26759 l 0,0 c -6.39377,-0.15111 -12.78891,-0.29845 -19.17987,-0.15877 -20.29073,-0.0457 -40.58343,-0.1171 -60.876998,-0.66562 -15.663884,-0.2221 -31.329025,-0.097 -46.992148,-0.60534 0,0 16.029978,-14.56272 16.029978,-14.56272 z"
           id="path3564"
           style="fill:#ffffff;fill-opacity:1;fill-rule:nonzero;stroke:none;stroke-width:1px;stroke-linecap:butt;stroke-linejoin:miter;stroke-opacity:1" />
        <path
           sodipodi:nodetypes="cccccccc"
           inkscape:connector-curvature="0"
           d="m 39.137426,119.18858 c 3.641763,-23.462893 6.380823,-49.858101 7.103051,-73.718189 l 0.232179,-12.331559 17.411002,-11.483707 0,0 -0.446542,12.495572 c -0.866667,23.613197 -1.622271,47.251239 -3.500134,70.774213 z"
           id="path3566"
           style="fill:#ffffff;fill-opacity:1;fill-rule:nonzero;stroke:none;stroke-width:1px;stroke-linecap:butt;stroke-linejoin:miter;stroke-opacity:1" />
        <path
           sodipodi:nodetypes="cccccccccc"
           inkscape:connector-curvature="0"
           d="m 65.680295,18.534085 c 30.555884,3.155215 61.289235,4.357202 91.960815,5.668384 58.45246,2.184731 116.93381,3.144519 175.41831,2.828899 26.8366,-0.204142 53.67456,-0.316732 80.50902,-0.715762 l -15.78624,12.417232 0,0 C 372.04397,37.980271 346.30352,37.272179 320.55802,36.875052 261.77453,36.386105 202.98146,36.363188 144.21264,34.702654 112.44171,33.770324 79.376945,31.766474 46.875184,34.323855 Z"
           id="path3568"
           style="fill:#ffffff;fill-opacity:1;fill-rule:nonzero;stroke:none;stroke-width:1px;stroke-linecap:butt;stroke-linejoin:miter;stroke-opacity:1" />
        <path
           inkscape:connector-curvature="0"
           d="m 261.87606,109.04051 c 13.41012,0.72909 26.83589,0.23295 40.24222,-0.34103 13.43262,-0.6638 6.85892,-0.30808 19.72138,-1.0595 0,0 -15.26589,13.3951 -15.26589,13.3951 l 0,0 c -12.72411,0.56749 -6.18782,0.25307 -19.60866,0.95104 -13.91955,0.72423 -27.84368,1.19273 -41.77211,1.56122 0,0 16.68306,-14.50683 16.68306,-14.50683 z"
           id="path3574"
           style="fill:#ffffff;fill-opacity:1;fill-rule:nonzero;stroke:none;stroke-width:1px;stroke-linecap:butt;stroke-linejoin:miter;stroke-opacity:1" />
        <path
           inkscape:connector-curvature="0"
           d="m 413.5178,25.57693 c -0.1392,6.783576 -0.60369,13.537232 -0.90399,20.306012 -0.19799,4.65343 -0.27625,9.317015 -0.31238,13.979715 -0.031,0.711612 -0.0622,1.423225 -0.0932,2.134837 0,0 -15.83851,12.362945 -15.83851,12.362945 l 0,0 c 0.0689,-0.629837 0.13798,-1.259675 0.20697,-1.889512 0.0205,-4.742428 0.0705,-9.485666 0.3416,-14.212758 0.3554,-6.653501 0.96379,-13.323176 0.82862,-20.006178 0,0 15.77093,-12.675061 15.77093,-12.675061 z"
           id="path3588"
           style="fill:#ffffff;fill-opacity:1;fill-rule:nonzero;stroke:none;stroke-width:1px;stroke-linecap:butt;stroke-linejoin:miter;stroke-opacity:1" />
        <path
           sodipodi:nodetypes="cccccccccc"
           inkscape:connector-curvature="0"
           d="m 94.194614,492.22846 c 10.866396,-4.23608 34.628906,-11.72202 45.805946,-14.49231 14.44416,-3.47919 26.61643,-7.38285 41.25834,-9.14081 5.43201,-0.40027 10.79541,-1.20294 16.13765,-2.41588 l -17.00437,15.40164 0,0 c -5.17092,0.92441 -10.3783,1.27757 -15.59208,1.68575 -14.51808,1.43484 -29.09186,2.90468 -43.36682,6.53383 -11.47188,3.04555 -23.082513,5.9165 -34.008031,11.22134 z"
           id="path3617"
           style="fill:#ffffff;fill-opacity:1;fill-rule:nonzero;stroke:none;stroke-width:1px;stroke-linecap:butt;stroke-linejoin:miter;stroke-opacity:1" />
        <g
           id="g5759"
           style="fill:#ffffff;fill-opacity:1">
          <g
             id="g5933"
             style="fill:#ffffff;fill-opacity:1">
            <path
               style="fill:#ffffff;fill-opacity:1;fill-rule:nonzero;stroke:none;stroke-width:1px;stroke-linecap:butt;stroke-linejoin:miter;stroke-opacity:1"
               id="path3580"
               d="m 341.15063,85.083914 c -5.38793,37.436326 -8.69116,75.140086 -11.12561,112.937376 0,0 -14.28035,7.92817 -14.28035,7.92817 l 0,0 c 3.63035,-46.12342 -0.14861,2.06175 3.63186,-46.70816 0.26402,-3.40601 3.02799,-38.49145 3.36304,-43.57467 0.71708,-10.87913 0.67395,-11.9484 0.87135,-20.83864 0,0 17.53971,-9.744076 17.53971,-9.744076 z"
               inkscape:connector-curvature="0" />
            <path
               style="fill:#ffffff;fill-opacity:1;fill-rule:nonzero;stroke:none;stroke-width:1px;stroke-linecap:butt;stroke-linejoin:miter;stroke-opacity:1"
               id="path3582"
               d="m 340.62196,81.364755 c 10.25263,0.09117 20.4954,-0.461253 30.7431,-0.661893 10.00711,-0.195928 20.01736,-0.170858 30.02389,-0.40036 16.04213,-0.367927 62.32818,-2.001245 77.56698,-2.523152 56.80501,-1.553229 113.54923,-3.523283 170.278,-7.173914 l -13.75755,11.251455 0,0 c -55.85297,1.808811 -111.72567,2.76233 -167.57173,4.832187 -48.23351,2.058116 -96.51155,3.985444 -144.59357,8.855014 z"
               inkscape:connector-curvature="0"
               sodipodi:nodetypes="cssccccccc" />
            <path
               style="fill:#ffffff;fill-opacity:1;fill-rule:nonzero;stroke:none;stroke-width:1px;stroke-linecap:butt;stroke-linejoin:miter;stroke-opacity:1"
               id="path3590"
               d="m 329.12095,194.71469 c 18.64411,0.93553 40.6286,-0.48157 59.21129,-1.87491 24.22588,-1.91919 43.35476,-1.58661 67.57326,-3.58861 l -10.29865,8.96814 0,0 c -24.00685,1.4936 -48.02,2.88143 -71.97721,5.03409 -9.14722,0.73986 -16.31743,1.40521 -25.43729,1.82099 -10.77644,0.49134 -21.57657,0.46516 -32.35619,0.87615 z"
               inkscape:connector-curvature="0"
               sodipodi:nodetypes="ccccccscc" />
            <path
               style="fill:#ffffff;fill-opacity:1;fill-rule:nonzero;stroke:none;stroke-width:1px;stroke-linecap:butt;stroke-linejoin:miter;stroke-opacity:1"
               id="path3594"
               d="m 555.07314,179.29343 c -2.35513,15.30572 -3.22914,30.95559 -4.26058,46.50406 -1.58132,28.42296 -3.14916,56.847 -4.48212,85.29403 -1.08206,23.32976 -1.57019,46.70341 -2.63516,70.03284 -0.4251,9.51413 -0.98858,19.01721 -1.76482,28.48995 0,0 -12.55006,8.42982 -12.55006,8.42982 l 0,0 c 1.02954,-9.53792 1.79978,-19.1256 2.31244,-28.74209 1.40769,-23.46791 2.03399,-47.00717 3.32168,-70.48839 1.40284,-28.35245 2.84651,-56.70128 4.10902,-85.06548 0.74992,-15.22513 1.47026,-30.47572 2.82135,-45.62712 0,0 13.12825,-8.82762 13.12825,-8.82762 z"
               inkscape:connector-curvature="0" />
            <path
               style="fill:#ffffff;fill-opacity:1;fill-rule:nonzero;stroke:none;stroke-width:1px;stroke-linecap:butt;stroke-linejoin:miter;stroke-opacity:1"
               id="path3607"
               d="m 441.20358,414.83756 c 6.65373,-1.62116 13.56389,-2.51478 20.47181,-3.43671 9.19513,-1.14213 18.53918,-1.45612 27.85772,-1.70077 7.54185,-0.15445 15.08762,-0.13116 22.6318,-0.13764 6.28581,0.003 12.57142,0.0107 18.85715,-0.0157 3.6989,-0.0195 7.39783,-0.0357 11.09685,-0.0437 l -9.13438,8.62046 -2.60666,0 c -3.63744,-0.008 -12.24373,-0.29551 -15.88101,-0.31992 -6.23848,-0.0354 -12.47703,-0.0407 -18.71565,-0.0551 -7.48902,-0.0178 -17.05341,0.99411 -25.46184,1.64499 -10.63599,0.47709 -44.03481,3.23262 -51.06279,10.07342 -7.07943,0.97577 4.94817,-2.58487 -1.80663,-0.7905 l 8.31695,-9.77081 z"
               inkscape:connector-curvature="0"
               sodipodi:nodetypes="ccccccccccccccc" />
            <path
               style="fill:#ffffff;fill-opacity:1;fill-rule:nonzero;stroke:none;stroke-width:1px;stroke-linecap:butt;stroke-linejoin:miter;stroke-opacity:1"
               id="path3613"
               d="m 649.23688,70.503186 c 0.16781,9.394464 -1.50071,19.338679 -1.23643,28.72345 0.3036,10.367774 0.34532,20.757484 0.39449,31.140114 0.16033,9.13929 -0.55422,17.81562 -0.22609,26.89264 0.21376,4.96814 0.37957,6.85729 0.48102,11.61532 l -11.88001,11.21007 0,0 c 0.0674,-0.31043 0.6326,-2.88625 0.67575,-3.19464 0.45483,-3.25051 0.50505,-6.7568 0.92494,-10.02635 0.53497,-9.03253 1.18054,-18.08416 1.01371,-27.20841 -0.0166,-10.37145 -0.0702,-20.74455 -0.31811,-31.10583 -0.25231,-9.243857 -0.80738,-19.049477 -3.66139,-27.769881 z"
               inkscape:connector-curvature="0"
               sodipodi:nodetypes="ccccccccccccc" />
            <path
               style="fill:#ffffff;fill-opacity:1;fill-rule:nonzero;stroke:none;stroke-width:1px;stroke-linecap:butt;stroke-linejoin:miter;stroke-opacity:1"
               id="path3590-3"
               d="m 554.99209,179.5438 c 13.48616,0.64773 27.74982,0.005 41.13578,-0.9598 17.44852,-1.32879 36.03351,-0.38755 52.36693,-9.36992 l -10.87738,13.09457 0,0 c -17.30054,1.03413 -34.60822,1.99501 -51.85712,3.48546 -6.58785,0.51225 -11.7498,0.97292 -18.3257,1.2608 -7.77033,0.34019 -15.57021,0.32207 -23.34477,0.60662 z"
               inkscape:connector-curvature="0"
               sodipodi:nodetypes="ccccccscc" />
          </g>
          <path
             style="opacity:0.98000004;fill:#ffffff;fill-opacity:1;fill-rule:nonzero;stroke:#000000;stroke-width:0;stroke-linecap:butt;stroke-linejoin:bevel;stroke-miterlimit:4;stroke-dasharray:none;stroke-opacity:1"
             id="path3560-6"
             d="m 415.29525,431.04576 c 20.06024,-69.12163 24.05484,-136.14992 28.90758,-203.115 0.61817,-11.24791 1.23631,-22.4958 1.85446,-33.74371 0,0 9.84828,-4.76577 9.84828,-4.76577 l 0,0 c -1.32688,11.59091 -2.65375,23.18185 -3.98062,34.77276 -5.00638,50.65429 -3.44841,32.44098 -7.58209,84.61882 -2.05601,25.95225 -3.65878,51.83098 -5.90714,77.81426 -0.64242,7.42417 -1.73499,14.91938 -2.37144,22.34262 -0.35587,4.1508 -0.40352,8.25061 -0.60529,12.37592 0,0 -20.16374,9.7001 -20.16374,9.7001 z"
             inkscape:connector-curvature="0" />
        </g>
      </g>
    </g>
  </g>
</svg>
